<svg xmlns="http://www.w3.org/2000/svg" version="1.1" xmlns:xlink="http://www.w3.org/1999/xlink" xmlns:svgjs="http://svgjs.dev/svgjs" width="1500" height="1500" viewBox="0 0 1500 1500"><rect width="1500" height="1500" fill="#ffffff"></rect><g transform="matrix(0.6666666666666666,0,0,0.6666666666666666,248.44244080996884,189.33333333333348)"><svg viewBox="0 0 321 360" data-background-color="#ffffff" preserveAspectRatio="xMidYMid meet" height="1682" width="1500" xmlns="http://www.w3.org/2000/svg" xmlns:xlink="http://www.w3.org/1999/xlink"><g id="tight-bounds" transform="matrix(1,0,0,1,0.5000234999999975,0)"><svg viewBox="0 0 320 360" height="360" width="320"><g><svg></svg></g><g><svg viewBox="0 0 320 360" height="360" width="320"><g><path transform="translate(-74.99272,-51.79039) scale(4.65793,4.65793)" d="M20.6 59.9l0.8 1-0.4-1.3c-0.1-0.6-0.8 0.1-0.4 0.3M21.5 59.3c0.3 0.5 0.6 1 0.6 1.5 0 0.7 0.6 1 1.1 1.2-0.7-0.8-1.1-3-1.7-2.7M59.9 16.9c1.7 0 3.3-0.2 5.1 0.2 4.4 1.1 8.1 3.3 10.6 6.4l7 11.2c0.3 2.8 0.9 5.9 0.8 9.3 0.7 0 0.6-1 1.4-1.2-0.8 2-1.2 4.5-1.4 7.4-0.5-1.6 0-4 0.1-5.3-0.7 1.1-1.1 0.3-1.1-0.2 0.1-0.8-0.3-0.7-0.6-1-1.1-1-1.8-2.1-2.6-3.8 0.5-1.3 0.6-3.2-1-4.2-0.5-0.3-1.1-0.8-1.4-1.6-0.4-1.1-1.1-2.4-0.9-4.1 0.1-0.5-1.5 1.1-2.4 0.4-3.9-2.7-7.8-5.8-12.5-8.4-2.5 0-4.3-0.9-5.2-2-0.8-1-0.2-2.3 1-2.4 0.7 0 1.5-0.2 2.1 0.2 0.1-0.4 0.5-0.9 1-0.9M50 14.6l0.2 0.1c1 0.2 1.5 1.6 2.6 1.1 0 0.7 0.1 1.4-0.1 1.9-0.3 0.8-1.2 0.8-1.9 0.8-6.7-0.4-10.6 2.4-14.7 4.8-1.1 0.7-2.3 1.2-3.2 2.1-4.3 4-9 7.7-10.1 15.1l-0.9 8.2c-0.1 0.9-1.1 1.8-0.9 2.9l0.7 4.9c-0.7-0.7-1.1 0.2-0.9 0.6 0.1 0.3 0.5 1.3 1.1 0.4 0.8 1.5 1.6 4.4 2.7 5.7 3.4 4 7.8 7.6 11.4 11.2 0.9-0.2 1.6-0.2 1.8-0.8 0.3 0.6-0.3 1.2-0.8 1.3 1.6 1 3.4 1.9 5.8 2.1 3.1 0.2 6 0.7 8.7 1.4 1.4-0.4 2.8-0.6 4.3-0.7 0.5 0 0.8-0.8 1.4-1l0.1-1c0.6 0.9 0.5-0.3 0.1-0.9 0.7 0.6 0.9 1.1 1.2 1.5 0-0.3 0.8-1.4 0.8-0.1l0.2-1.3c0.3-0.2 0.4 1.1 0.7 0.2 0.3-0.9 0.9-0.2 1.5-0.5-0.2 0.4-0.1 1.2 0.6 0.7l0.8-0.7c0.5 1.2 1.3 0.7 1.7 0.5 4.4-2.8 8.8-6.1 13-9.4l-0.1 1.3 0.5-1.6c0.5 0.5 0.9 0.1 1.1-0.2 0.6-1 1.4-2 2.7-2.9-1.6 4.3-3.5 7.7-5.9 10.5l-1 1.2c0 0.7-0.2 1.6-1 1.7-0.4 0.1-1.2-0.2-1.8 0.4-0.3 0.4 0.7 1.2-0.1 0.6-0.7-0.5-1.4 0-2.2 0.2-0.6 0.2 0.4 0.8 0.6 1.2 0.2 0.4 0.4 0.8 0.3 1.3l-1.1-1.2c-1.3 0.7-2.1 2-3.2 3-0.5 0.4-0.3 1.1-0.3 1.7-0.7 0-1.5-0.2-1.9 0.2-0.3 0.4-0.2 1-0.2 1.6-1-0.1-1.1-1.6-2-1.3-0.9 0.2-1.9 0.3-2.7 0.8 0.6 1.2-1 0.5-0.8 0.7-1.5-0.9-2.8-1.6-4.4-1-3.4-1.1-7.6-0.6-10.7-0.2 0-0.5 0.1-1-0.1-1.1-0.2 0.5-0.8 0.3-0.7 0.3-1.9-1.3-3.8-2.1-5.8-3.2-1.8 0.2-3.5-0.7-4-1.2-1.4-1.3-3-0.6-4.3-0.9-2.8-0.7-3.8-3.6-4.1-5.6-0.2-1-1-1.4-1.3-1.3-1.3-4.2-3.3-8-4.9-11.9-0.4-1-0.3-2-0.3-3.1 0.5 0.2 1 0.1 0.9-0.6-0.5-3.3-1.7-5.8-3-8.2 0.7-3.4 0.8-7.4 2.4-10.4 1.4-2.7 4-4.1 5.8-6.4 0.6-0.8 0.6-1.9 1.2-2.6 2-2 4-4.1 6.2-5.9 1-0.8 2.2 0 3.7-0.3 0.5-1.8 2.5-3.4 4.4-2.9 0.8 0.2 2.4-1.9 2.9-2.1 0.8-0.3 0.4 0.8 0.4 1.5 1.9-1.5 4.5-2.3 6.9-3.2" fill="#ff2149" fill-rule="nonzero" stroke="none" stroke-width="1" stroke-linecap="butt" stroke-linejoin="miter" stroke-miterlimit="10" stroke-dasharray="" stroke-dashoffset="0" font-family="none" font-weight="none" font-size="none" text-anchor="none" style="mix-blend-mode: normal" data-fill-palette-color="tertiary"></path></g><g transform="matrix(1,0,0,1,64.44005187048047,90)"><svg viewBox="0 0 191.11989625903905 180" height="180" width="191.11989625903905"><g><svg viewBox="0 0 191.11989625903905 180" height="180" width="191.11989625903905"><g><svg viewBox="0 0 192 180.82889681542235" height="180" width="191.11989625903905"><g transform="matrix(1,0,0,1,0,107.50890914179666)"><svg viewBox="0 0 192 73.31998767362569" height="73.31998767362569" width="192"><g id="textblocktransform"><svg viewBox="0 0 192 73.31998767362569" height="73.31998767362569" width="192" id="textblock"><g><svg viewBox="0 0 192 42.355515041020965" height="42.355515041020965" width="192"><g transform="matrix(1,0,0,1,0,0)"><svg width="192" viewBox="4.6 -35.7 164.53 36.300000000000004" height="42.355515041020965" data-palette-color="#ff2149"><path d="M14.85 0L4.6 0 4.6-32.85 14.1-32.85Q17.45-32.85 19.98-32.02 22.5-31.2 23.9-29.43 25.3-27.65 25.3-24.8L25.3-24.8Q25.3-22.35 24.03-20.4 22.75-18.45 20.4-17.7L20.4-17.7 20.4-17.5Q23.45-16.95 25.33-14.98 27.2-13 27.2-9.6L27.2-9.6Q27.2-6.4 25.65-4.25 24.1-2.1 21.3-1.05 18.5 0 14.85 0L14.85 0ZM8.3-15.9L8.3-2.95 14.25-2.95Q18.65-2.95 21.1-4.6 23.55-6.25 23.55-9.7L23.55-9.7Q23.55-12.9 21.15-14.4 18.75-15.9 14.25-15.9L14.25-15.9 8.3-15.9ZM8.3-29.9L8.3-18.75 13.35-18.75Q17.75-18.75 19.7-20.28 21.65-21.8 21.65-24.35L21.65-24.35Q21.65-27.4 19.6-28.65 17.55-29.9 13.55-29.9L13.55-29.9 8.3-29.9ZM40.5 0.6L40.5 0.6Q36.75 0.6 34.95-1.8 33.15-4.2 33.15-8.85L33.15-8.85 33.15-24.25 36.75-24.25 36.75-9.3Q36.75-5.8 37.9-4.17 39.05-2.55 41.6-2.55L41.6-2.55Q43.5-2.55 45.05-3.58 46.6-4.6 48.4-6.85L48.4-6.85 48.4-24.25 52.05-24.25 52.05 0 49 0 48.7-3.85 48.55-3.85Q46.85-1.85 44.95-0.63 43.05 0.6 40.5 0.6ZM64.09 0L60.5 0 60.5-24.25 63.5-24.25 63.8-19.8 63.95-19.8Q65.2-22.1 66.97-23.48 68.75-24.85 70.84-24.85L70.84-24.85Q71.59-24.85 72.2-24.73 72.8-24.6 73.34-24.35L73.34-24.35 72.65-21.15Q72.05-21.35 71.57-21.45 71.09-21.55 70.34-21.55L70.34-21.55Q68.8-21.55 67.09-20.28 65.4-19 64.09-15.8L64.09-15.8 64.09 0ZM84.49 0.6L84.49 0.6Q80.74 0.6 78.94-1.8 77.14-4.2 77.14-8.85L77.14-8.85 77.14-24.25 80.74-24.25 80.74-9.3Q80.74-5.8 81.89-4.17 83.04-2.55 85.59-2.55L85.59-2.55Q87.49-2.55 89.04-3.58 90.59-4.6 92.39-6.85L92.39-6.85 92.39-24.25 96.04-24.25 96.04 0 92.99 0 92.69-3.85 92.54-3.85Q90.84-1.85 88.94-0.63 87.04 0.6 84.49 0.6ZM110.69 0.6L110.69 0.6Q108.09 0.6 105.74-0.38 103.39-1.35 101.69-2.75L101.69-2.75 103.54-5.2Q105.09-3.95 106.82-3.1 108.54-2.25 110.84-2.25L110.84-2.25Q113.34-2.25 114.59-3.45 115.84-4.65 115.84-6.3L115.84-6.3Q115.84-7.6 114.99-8.47 114.14-9.35 112.87-9.98 111.59-10.6 110.19-11.1L110.19-11.1Q108.49-11.7 106.79-12.55 105.09-13.4 103.97-14.7 102.84-16 102.84-18.05L102.84-18.05Q102.84-20.9 105.02-22.88 107.19-24.85 111.09-24.85L111.09-24.85Q113.29-24.85 115.19-24.05 117.09-23.25 118.44-22.15L118.44-22.15 116.69-19.8Q115.44-20.7 114.12-21.33 112.79-21.95 111.09-21.95L111.09-21.95Q108.69-21.95 107.54-20.83 106.39-19.7 106.39-18.25L106.39-18.25Q106.39-17.05 107.17-16.28 107.94-15.5 109.19-14.95 110.44-14.4 111.84-13.85L111.84-13.85Q113.64-13.2 115.37-12.38 117.09-11.55 118.24-10.2 119.39-8.85 119.39-6.5L119.39-6.5Q119.39-4.6 118.39-2.98 117.39-1.35 115.44-0.38 113.49 0.6 110.69 0.6ZM128.89 0L125.29 0 125.29-35.7 128.89-35.7 128.89-25.8 128.79-20.7Q130.54-22.45 132.49-23.65 134.44-24.85 136.89-24.85L136.89-24.85Q140.74-24.85 142.51-22.45 144.29-20.05 144.29-15.4L144.29-15.4 144.29 0 140.64 0 140.64-14.95Q140.64-18.45 139.51-20.05 138.39-21.65 135.84-21.65L135.84-21.65Q133.89-21.65 132.36-20.68 130.84-19.7 128.89-17.75L128.89-17.75 128.89 0ZM156.24 0.6L156.24 0.6Q154.84 0.6 153.96 0.03 153.09-0.55 152.69-1.68 152.29-2.8 152.29-4.45L152.29-4.45 152.29-35.7 155.89-35.7 155.89-4.15Q155.89-3.25 156.24-2.85 156.59-2.45 157.04-2.45L157.04-2.45Q157.19-2.45 157.39-2.48 157.59-2.5 157.94-2.55L157.94-2.55 158.44 0.25Q158.04 0.4 157.51 0.5 156.99 0.6 156.24 0.6ZM168.38 0L164.78 0 164.78-24.25 168.38-24.25 168.38 0ZM166.63-29.45L166.63-29.45Q165.58-29.45 164.86-30.15 164.13-30.85 164.13-32L164.13-32Q164.13-33.05 164.86-33.75 165.58-34.45 166.63-34.45L166.63-34.45Q167.73-34.45 168.43-33.75 169.13-33.05 169.13-32L169.13-32Q169.13-30.85 168.43-30.15 167.73-29.45 166.63-29.45Z" opacity="1" transform="matrix(1,0,0,1,0,0)" fill="#ff2149" class="wordmark-text-0" data-fill-palette-color="primary" id="text-0"></path></svg></g></svg></g><g transform="matrix(1,0,0,1,0,48.53620121786691)"><svg viewBox="0 0 192 24.783786455758783" height="24.783786455758783" width="192"><g transform="matrix(1,0,0,1,0,0)"><svg width="192" viewBox="1.35 -37.069230766123 303.40999999999997 39.169230766123" height="24.783786455758783" data-palette-color="#ff2149"><path d="M19.75-17.05L19.75-17.05Q19.75-13.75 18.85-8.3 17.95-2.85 16.7 1.7L16.7 1.7Q15.95 1.7 15.1 1.55 14.25 1.4 13.45 1.15L13.45 1.15Q13.5 0.95 13.55 0.68 13.6 0.4 13.75-0.05L13.75-0.05Q13.9-0.85 14-1.23 14.1-1.6 14.15-1.9L14.15-1.9Q13.1-1.15 11.78-0.75 10.45-0.35 8.95-0.35L8.95-0.35Q5.55-0.35 3.45-2.18 1.35-4 1.35-7L1.35-7Q1.35-10.25 4.1-11.95 6.85-13.65 12.2-13.65L12.2-13.65Q13-13.65 13.75-13.63 14.5-13.6 15.75-13.55L15.75-13.55Q15.8-14.05 15.8-14.65 15.8-15.25 15.8-16.55L15.8-16.55Q15.8-20.55 14.83-22.35 13.85-24.15 11.6-24.15L11.6-24.15Q9.3-24.15 7.75-22.13 6.2-20.1 6.1-17L6.1-17Q4.7-17.2 3.85-17.68 3-18.15 2.55-18.95L2.55-18.95Q3.15-22.25 5.88-24.55 8.6-26.85 12.1-26.85L12.1-26.85Q15.9-26.85 17.82-24.38 19.75-21.9 19.75-17.05ZM5.3-6.9L5.3-6.9Q5.3-5.05 6.5-3.98 7.7-2.9 9.65-2.9L9.65-2.9Q11.05-2.9 12.33-3.33 13.6-3.75 14.7-4.6L14.7-4.6Q15.1-6.65 15.33-8.25 15.55-9.85 15.65-11.45L15.65-11.45Q10.5-11.75 7.9-10.63 5.3-9.5 5.3-6.9ZM28.9-8.35L28.9-8.35Q28.9-6 29-3.03 29.1-0.05 29.25 1.3L29.25 1.3Q28.6 1.5 27.7 1.65 26.8 1.8 25.95 1.8L25.95 1.8Q25.6-3.45 25.35-11.8 25.1-20.15 25.1-25.95L25.1-25.95Q25.6-26.2 26.3-26.35 27-26.5 27.75-26.5L27.75-26.5Q28.25-26.5 28.72-26.45 29.2-26.4 29.7-26.3L29.7-26.3Q29.6-25.4 29.47-23.43 29.35-21.45 29.3-20.85L29.3-20.85Q30.95-23.6 32.8-24.95 34.65-26.3 36.7-26.3L36.7-26.3Q39.8-26.3 41.22-24.03 42.65-21.75 42.65-16.9L42.65-16.9Q42.65-13 42.02-8.15 41.4-3.3 40.7-0.55L40.7-0.55Q39.9-0.6 38.92-0.78 37.95-0.95 37.15-1.2L37.15-1.2Q38.05-6.1 38.45-9.9 38.85-13.7 38.85-17.05L38.85-17.05Q38.85-20.2 38.07-21.6 37.3-23 35.55-23L35.55-23Q33.8-23 32.07-21.25 30.35-19.5 29.1-16.45L29.1-16.45Q29-12.85 28.95-11.2 28.9-9.55 28.9-8.35ZM53.15-37.05L53.15-37.05Q53.85-37 54.37-36.88 54.9-36.75 55.35-36.5L55.35-36.5Q54.85-35.4 54.32-33.88 53.8-32.35 53.5-30.9L53.5-30.9Q52.95-30.8 52.1-30.78 51.25-30.75 50.35-30.8L50.35-30.8Q50.25-31.25 50.22-31.63 50.2-32 50.2-32.4L50.2-32.4Q50.2-33.45 50.42-34.65 50.65-35.85 51.05-36.7L51.05-36.7Q51.6-36.95 52.05-37.02 52.5-37.1 53.15-37.05ZM49.3-24.9L49.3-24.9Q49.9-25.25 50.52-25.43 51.15-25.6 51.85-25.6L51.85-25.6Q52.25-25.6 52.57-25.55 52.9-25.5 53.25-25.4L53.25-25.4Q52.25-20.15 51.85-13.1 51.45-6.05 51.85 0.05L51.85 0.05Q51.5 0.25 50.95 0.35 50.4 0.45 49.85 0.45L49.85 0.45Q49.6 0.45 49.37 0.43 49.15 0.4 48.85 0.35L48.85 0.35Q48-6 48.12-12.78 48.25-19.55 49.3-24.9ZM62.24-8.35L62.24-8.35Q62.24-5.45 62.34-2.83 62.44-0.2 62.59 0.95L62.59 0.95Q61.94 1.15 61.04 1.3 60.14 1.45 59.29 1.45L59.29 1.45Q58.94-4.45 58.64-12.6 58.34-20.75 58.34-26.1L58.34-26.1Q58.84-26.35 59.54-26.5 60.24-26.65 60.99-26.65L60.99-26.65Q61.74-26.65 62.17-26.6 62.59-26.55 62.99-26.45L62.99-26.45Q62.94-25.95 62.82-24.48 62.69-23 62.54-20.55L62.54-20.55Q64.09-22.95 65.92-24.15 67.74-25.35 69.84-25.35L69.84-25.35Q71.64-25.35 72.82-24.5 73.99-23.65 74.64-21.9L74.64-21.9Q76.39-25 78.37-26.55 80.34-28.1 82.64-28.1L82.64-28.1Q85.59-28.1 86.94-25.85 88.29-23.6 88.29-18.75L88.29-18.75Q88.29-14.35 87.47-8.8 86.64-3.25 85.44 1.1L85.44 1.1Q84.54 1.05 83.52 0.88 82.49 0.7 81.79 0.45L81.79 0.45Q83.14-4.95 83.82-9.73 84.49-14.5 84.49-18.9L84.49-18.9Q84.49-22.05 83.77-23.43 83.04-24.8 81.39-24.8L81.39-24.8Q79.74-24.8 78.14-23.15 76.54-21.5 75.34-18.55L75.34-18.55Q75.39-17.7 75.42-17.13 75.44-16.55 75.44-16.05L75.44-16.05Q75.44-12.5 74.84-8 74.24-3.5 73.49-0.55L73.49-0.55Q72.74-0.6 71.77-0.78 70.79-0.95 69.99-1.2L69.99-1.2Q70.94-6.25 71.32-9.7 71.69-13.15 71.69-16.1L71.69-16.1Q71.69-19.3 70.97-20.68 70.24-22.05 68.59-22.05L68.59-22.05Q66.84-22.05 65.17-20.5 63.49-18.95 62.39-16.25L62.39-16.25Q62.34-14.25 62.29-12.18 62.24-10.1 62.24-8.35ZM111.04-17.05L111.04-17.05Q111.04-13.75 110.14-8.3 109.24-2.85 107.99 1.7L107.99 1.7Q107.24 1.7 106.39 1.55 105.54 1.4 104.74 1.15L104.74 1.15Q104.79 0.95 104.84 0.68 104.89 0.4 105.04-0.05L105.04-0.05Q105.19-0.85 105.29-1.23 105.39-1.6 105.44-1.9L105.44-1.9Q104.39-1.15 103.07-0.75 101.74-0.35 100.24-0.35L100.24-0.35Q96.84-0.35 94.74-2.18 92.64-4 92.64-7L92.64-7Q92.64-10.25 95.39-11.95 98.14-13.65 103.49-13.65L103.49-13.65Q104.29-13.65 105.04-13.63 105.79-13.6 107.04-13.55L107.04-13.55Q107.09-14.05 107.09-14.65 107.09-15.25 107.09-16.55L107.09-16.55Q107.09-20.55 106.12-22.35 105.14-24.15 102.89-24.15L102.89-24.15Q100.59-24.15 99.04-22.13 97.49-20.1 97.39-17L97.39-17Q95.99-17.2 95.14-17.68 94.29-18.15 93.84-18.95L93.84-18.95Q94.44-22.25 97.17-24.55 99.89-26.85 103.39-26.85L103.39-26.85Q107.19-26.85 109.12-24.38 111.04-21.9 111.04-17.05ZM96.59-6.9L96.59-6.9Q96.59-5.05 97.79-3.98 98.99-2.9 100.94-2.9L100.94-2.9Q102.34-2.9 103.62-3.33 104.89-3.75 105.99-4.6L105.99-4.6Q106.39-6.65 106.62-8.25 106.84-9.85 106.94-11.45L106.94-11.45Q101.79-11.75 99.19-10.63 96.59-9.5 96.59-6.9ZM126.49-10.35L126.49-10.35Q127.29-10.25 128.06-10.03 128.84-9.8 129.39-9.45L129.39-9.45Q129.29-5.25 127.71-2.88 126.14-0.5 123.44-0.5L123.44-0.5Q120.29-0.5 118.69-4.08 117.09-7.65 117.09-14.65L117.09-14.65Q117.09-16.95 117.24-19.25 117.39-21.55 117.69-23.95L117.69-23.95Q116.74-24 115.81-24.15 114.89-24.3 113.94-24.5L113.94-24.5Q113.99-25.2 114.14-25.85 114.29-26.5 114.54-27.05L114.54-27.05Q115.49-26.85 116.34-26.7 117.19-26.55 118.04-26.5L118.04-26.5Q118.24-27.8 118.56-29.33 118.89-30.85 119.44-33.1L119.44-33.1Q120.49-33.05 121.51-32.88 122.54-32.7 123.49-32.4L123.49-32.4Q122.99-30.75 122.59-29.2 122.19-27.65 121.94-26.2L121.94-26.2Q123.94-26.15 125.84-26.23 127.74-26.3 129.54-26.45L129.54-26.45Q129.54-25.95 129.41-25.33 129.29-24.7 129.09-24L129.09-24Q127.24-23.8 125.31-23.73 123.39-23.65 121.49-23.7L121.49-23.7Q121.14-21.35 120.94-18.9 120.74-16.45 120.74-14.1L120.74-14.1Q120.74-8.8 121.51-6.03 122.29-3.25 123.74-3.25L123.74-3.25Q125.09-3.25 125.76-4.98 126.44-6.7 126.49-10.35ZM138.94-37.05L138.94-37.05Q139.64-37 140.16-36.88 140.69-36.75 141.14-36.5L141.14-36.5Q140.64-35.4 140.11-33.88 139.59-32.35 139.29-30.9L139.29-30.9Q138.74-30.8 137.89-30.78 137.04-30.75 136.14-30.8L136.14-30.8Q136.04-31.25 136.01-31.63 135.99-32 135.99-32.4L135.99-32.4Q135.99-33.45 136.21-34.65 136.44-35.85 136.84-36.7L136.84-36.7Q137.39-36.95 137.84-37.02 138.29-37.1 138.94-37.05ZM135.09-24.9L135.09-24.9Q135.69-25.25 136.31-25.43 136.94-25.6 137.64-25.6L137.64-25.6Q138.04-25.6 138.36-25.55 138.69-25.5 139.04-25.4L139.04-25.4Q138.04-20.15 137.64-13.1 137.24-6.05 137.64 0.05L137.64 0.05Q137.29 0.25 136.74 0.35 136.19 0.45 135.64 0.45L135.64 0.45Q135.39 0.45 135.16 0.43 134.94 0.4 134.64 0.35L134.64 0.35Q133.79-6 133.91-12.78 134.04-19.55 135.09-24.9ZM142.23-12.1L142.23-12.1Q142.23-18.6 145.21-22.7 148.18-26.8 152.88-26.8L152.88-26.8Q156.73-26.8 158.98-23.88 161.23-20.95 161.23-16L161.23-16Q161.23-8.75 158.41-4.13 155.58 0.5 150.93 0.5L150.93 0.5Q146.93 0.5 144.58-2.98 142.23-6.45 142.23-12.1ZM157.23-13.9L157.23-13.9Q157.23-19 155.93-21.5 154.63-24 151.98-24L151.98-24Q149.58-24 147.81-20.7 146.03-17.4 146.03-12.6L146.03-12.6Q146.03-8.2 147.53-5.23 149.03-2.25 151.58-2.25L151.58-2.25Q153.83-2.25 155.53-5.68 157.23-9.1 157.23-13.9ZM169.48-8.35L169.48-8.35Q169.48-6 169.58-3.03 169.68-0.05 169.83 1.3L169.83 1.3Q169.18 1.5 168.28 1.65 167.38 1.8 166.53 1.8L166.53 1.8Q166.18-3.45 165.93-11.8 165.68-20.15 165.68-25.95L165.68-25.95Q166.18-26.2 166.88-26.35 167.58-26.5 168.33-26.5L168.33-26.5Q168.83-26.5 169.31-26.45 169.78-26.4 170.28-26.3L170.28-26.3Q170.18-25.4 170.06-23.43 169.93-21.45 169.88-20.85L169.88-20.85Q171.53-23.6 173.38-24.95 175.23-26.3 177.28-26.3L177.28-26.3Q180.38-26.3 181.81-24.03 183.23-21.75 183.23-16.9L183.23-16.9Q183.23-13 182.61-8.15 181.98-3.3 181.28-0.55L181.28-0.55Q180.48-0.6 179.51-0.78 178.53-0.95 177.73-1.2L177.73-1.2Q178.63-6.1 179.03-9.9 179.43-13.7 179.43-17.05L179.43-17.05Q179.43-20.2 178.66-21.6 177.88-23 176.13-23L176.13-23Q174.38-23 172.66-21.25 170.93-19.5 169.68-16.45L169.68-16.45Q169.58-12.85 169.53-11.2 169.48-9.55 169.48-8.35ZM206.63-14.4L206.63-14.4Q210.23-11.8 211.35-9.98 212.48-8.15 212.48-5.95L212.48-5.95Q212.48-2.5 210.28-0.25 208.08 2 204.68 2L204.68 2Q201.13 2 198.9-0.55 196.68-3.1 196.68-7.3L196.68-7.3Q197.43-7.55 198.25-7.68 199.08-7.8 199.88-7.75L199.88-7.75Q199.78-4.4 201.05-2.5 202.33-0.6 204.73-0.6L204.73-0.6Q206.53-0.6 207.6-1.83 208.68-3.05 208.68-5.15L208.68-5.15Q208.68-6.85 207.73-8.33 206.78-9.8 203.63-12.1L203.63-12.1Q199.93-14.8 198.78-16.73 197.63-18.65 197.63-21L197.63-21Q197.63-24.15 199.53-26.03 201.43-27.9 204.68-27.9L204.68-27.9Q207.78-27.9 209.55-26.1 211.33-24.3 212.03-20.35L212.03-20.35Q211.28-20 210.5-19.83 209.73-19.65 208.88-19.55L208.88-19.55Q208.48-22.5 207.45-23.85 206.43-25.2 204.63-25.2L204.63-25.2Q203.13-25.2 202.25-24.2 201.38-23.2 201.38-21.5L201.38-21.5Q201.38-19.75 202.38-18.25 203.38-16.75 206.63-14.4ZM227.12-10.35L227.12-10.35Q227.92-10.25 228.7-10.03 229.47-9.8 230.02-9.45L230.02-9.45Q229.92-5.25 228.35-2.88 226.77-0.5 224.07-0.5L224.07-0.5Q220.92-0.5 219.32-4.08 217.72-7.65 217.72-14.65L217.72-14.65Q217.72-16.95 217.87-19.25 218.02-21.55 218.32-23.95L218.32-23.95Q217.37-24 216.45-24.15 215.52-24.3 214.57-24.5L214.57-24.5Q214.62-25.2 214.77-25.85 214.92-26.5 215.17-27.05L215.17-27.05Q216.12-26.85 216.97-26.7 217.82-26.55 218.67-26.5L218.67-26.5Q218.87-27.8 219.2-29.33 219.52-30.85 220.07-33.1L220.07-33.1Q221.12-33.05 222.15-32.88 223.17-32.7 224.12-32.4L224.12-32.4Q223.62-30.75 223.22-29.2 222.82-27.65 222.57-26.2L222.57-26.2Q224.57-26.15 226.47-26.23 228.37-26.3 230.17-26.45L230.17-26.45Q230.17-25.95 230.05-25.33 229.92-24.7 229.72-24L229.72-24Q227.87-23.8 225.95-23.73 224.02-23.65 222.12-23.7L222.12-23.7Q221.77-21.35 221.57-18.9 221.37-16.45 221.37-14.1L221.37-14.1Q221.37-8.8 222.15-6.03 222.92-3.25 224.37-3.25L224.37-3.25Q225.72-3.25 226.4-4.98 227.07-6.7 227.12-10.35ZM240.92 0.5L240.92 0.5Q237.27 0.5 235.4-3.05 233.52-6.6 233.52-13.5L233.52-13.5Q233.52-17 234.1-20.53 234.67-24.05 235.52-25.6L235.52-25.6Q235.97-25.75 236.42-25.83 236.87-25.9 237.32-25.9L237.32-25.9Q237.77-25.9 238.15-25.83 238.52-25.75 238.87-25.55L238.87-25.55Q238.12-23.15 237.72-20.05 237.32-16.95 237.32-13.35L237.32-13.35Q237.32-8.5 238.45-5.4 239.57-2.3 241.47-2.3L241.47-2.3Q243.82-2.3 245.05-5.9 246.27-9.5 246.27-16L246.27-16Q246.27-18 246.07-20.18 245.87-22.35 245.67-23.2L245.67-23.2Q246.42-23.55 247.52-23.75 248.62-23.95 249.62-23.95L249.62-23.95Q249.87-22.8 250-21.2 250.12-19.6 250.12-17.95L250.12-17.95Q250.12-9 247.8-4.25 245.47 0.5 240.92 0.5ZM271.72 1.65L271.72 1.65Q271.12 1.85 270.29 1.98 269.47 2.1 268.87 2.1L268.87 2.1Q268.72 0.5 268.62-1.13 268.52-2.75 268.47-4.35L268.47-4.35Q267.52-1.35 265.97 0.08 264.42 1.5 262.07 1.5L262.07 1.5Q258.22 1.5 255.97-2.1 253.72-5.7 253.72-11.65L253.72-11.65Q253.72-18.2 256.69-22.13 259.67-26.05 264.62-26.05L264.62-26.05Q265.42-26.05 266.27-25.95 267.12-25.85 267.82-25.65L267.82-25.65Q267.77-30.35 267.74-32.3 267.72-34.25 267.72-35.8L267.72-35.8Q268.17-36.05 268.87-36.2 269.57-36.35 270.22-36.35L270.22-36.35Q270.62-36.35 271.07-36.27 271.52-36.2 272.07-36.1L272.07-36.1Q271.82-33 271.69-27.23 271.57-21.45 271.57-6.1L271.57-6.1Q271.57-3.85 271.59-2.18 271.62-0.5 271.72 1.65ZM257.52-12.2L257.52-12.2Q257.52-7.05 258.87-4.23 260.22-1.4 262.62-1.4L262.62-1.4Q264.82-1.4 266.24-3.88 267.67-6.35 268.17-11.15L268.17-11.15Q268.07-13.95 267.99-16.95 267.92-19.95 267.87-23L267.87-23Q267.27-23.2 266.57-23.28 265.87-23.35 265.07-23.35L265.07-23.35Q261.67-23.35 259.59-20.38 257.52-17.4 257.52-12.2ZM282.47-37.05L282.47-37.05Q283.17-37 283.69-36.88 284.22-36.75 284.67-36.5L284.67-36.5Q284.17-35.4 283.64-33.88 283.12-32.35 282.82-30.9L282.82-30.9Q282.27-30.8 281.42-30.78 280.57-30.75 279.67-30.8L279.67-30.8Q279.57-31.25 279.54-31.63 279.52-32 279.52-32.4L279.52-32.4Q279.52-33.45 279.74-34.65 279.97-35.85 280.37-36.7L280.37-36.7Q280.92-36.95 281.37-37.02 281.82-37.1 282.47-37.05ZM278.62-24.9L278.62-24.9Q279.22-25.25 279.84-25.43 280.47-25.6 281.17-25.6L281.17-25.6Q281.57-25.6 281.89-25.55 282.22-25.5 282.57-25.4L282.57-25.4Q281.57-20.15 281.17-13.1 280.77-6.05 281.17 0.05L281.17 0.05Q280.82 0.25 280.27 0.35 279.72 0.45 279.17 0.45L279.17 0.45Q278.92 0.45 278.69 0.43 278.47 0.4 278.17 0.35L278.17 0.35Q277.32-6 277.44-12.78 277.57-19.55 278.62-24.9ZM285.76-12.1L285.76-12.1Q285.76-18.6 288.74-22.7 291.71-26.8 296.41-26.8L296.41-26.8Q300.26-26.8 302.51-23.88 304.76-20.95 304.76-16L304.76-16Q304.76-8.75 301.94-4.13 299.11 0.5 294.46 0.5L294.46 0.5Q290.46 0.5 288.11-2.98 285.76-6.45 285.76-12.1ZM300.76-13.9L300.76-13.9Q300.76-19 299.46-21.5 298.16-24 295.51-24L295.51-24Q293.11-24 291.34-20.7 289.56-17.4 289.56-12.6L289.56-12.6Q289.56-8.2 291.06-5.23 292.56-2.25 295.11-2.25L295.11-2.25Q297.36-2.25 299.06-5.68 300.76-9.1 300.76-13.9Z" opacity="1" transform="matrix(1,0,0,1,0,0)" fill="#ff2149" class="slogan-text-1" data-fill-palette-color="secondary" id="text-1"></path></svg></g></svg></g></svg></g></svg></g><g transform="matrix(1,0,0,1,56.301882127349025,0)"><svg viewBox="0 0 79.39623574530195 101.32822296495073" height="101.32822296495073" width="79.39623574530195"><g><svg xmlns="http://www.w3.org/2000/svg" xmlns:xlink="http://www.w3.org/1999/xlink" version="1.1" x="0" y="0" viewBox="21.644 0 156.71099999999998 200" enable-background="new 0 0 200 200" xml:space="preserve" height="101.32822296495073" width="79.39623574530195" class="icon-icon-0" data-fill-palette-color="accent" id="icon-0"><g fill="#38e7ff" data-fill-palette-color="accent"><path fill="#38e7ff" d="M143.008 74.89H143.002C133.371 74.89 125.536 67.051 125.536 57.418 125.536 47.783 133.377 39.946 143.013 39.946 147.678 39.946 152.064 41.763 155.363 45.062A17.34 17.34 0 0 1 160.481 57.416C160.481 62.079 158.663 66.467 155.363 69.77A17.36 17.36 0 0 1 143.008 74.89M143.013 46.637C137.066 46.637 132.228 51.474 132.228 57.418S137.06 68.199 143.002 68.199V71.545L143.007 68.199C145.886 68.199 148.593 67.076 150.629 65.039A10.7 10.7 0 0 0 153.789 57.415C153.789 54.536 152.669 51.83 150.632 49.794A10.7 10.7 0 0 0 143.013 46.637" data-fill-palette-color="accent"></path><g fill="#38e7ff" data-fill-palette-color="accent"><path fill="#38e7ff" d="M114.262 90.898L111.895 88.532C100.661 77.297 96.354 60.811 100.657 45.509L107.098 47.318A37.36 37.36 0 0 0 114.369 81.329L166.922 28.77A37.39 37.39 0 0 0 132.933 21.486L131.127 15.044C146.419 10.753 162.897 15.067 174.126 26.297L176.491 28.662z" data-fill-palette-color="accent"></path><path fill="#38e7ff" d="M103.847 51.173L92.204 39.529C83.354 30.431 83.468 15.772 92.422 6.818 96.82 2.421 102.662 0 108.873 0 115.083 0 120.926 2.421 125.322 6.818L136.769 18.262zM108.873 6.691A16.47 16.47 0 0 0 97.152 11.55C90.771 17.929 90.689 28.373 96.967 34.831L103.846 41.711 127.304 18.262 120.591 11.549A16.47 16.47 0 0 0 108.873 6.691" data-fill-palette-color="accent"></path></g><g fill="#38e7ff" data-fill-palette-color="accent"><rect x="143.177" y="154.627" transform="matrix(0.707 0.7072 -0.7072 0.707 155.5999 -56.9395)" fill="#38e7ff" width="6.691" height="9.403" data-fill-palette-color="accent"></rect><path fill="#38e7ff" d="M160.925 200H57.471V196.654C57.471 168.135 80.676 144.934 109.199 144.934 137.72 144.934 160.925 168.135 160.925 196.654zM64.285 193.309H154.112C152.392 170.038 132.905 151.626 109.2 151.626 85.492 151.626 66.004 170.038 64.285 193.309" data-fill-palette-color="accent"></path><g fill="#38e7ff" data-fill-palette-color="accent"><path fill="#38e7ff" d="M101.021 164.549L99.352 158.07A39.5 39.5 0 0 1 109.197 156.835V163.526A32.7 32.7 0 0 0 101.021 164.549" data-fill-palette-color="accent"></path><path fill="#38e7ff" d="M77.859 185.854L71.538 183.662A40 40 0 0 1 93.676 159.983L96.287 166.143A33.3 33.3 0 0 0 77.859 185.854" data-fill-palette-color="accent"></path></g></g><g fill="#38e7ff" data-fill-palette-color="accent"><path fill="#38e7ff" d="M36.974 110.496C28.521 110.496 21.644 103.617 21.644 95.162 21.644 86.713 28.521 79.839 36.974 79.839 45.424 79.839 52.299 86.714 52.299 95.162 52.299 103.617 45.424 110.496 36.974 110.496M36.974 86.53C32.21 86.53 28.335 90.402 28.335 95.162 28.335 99.928 32.21 103.805 36.974 103.805 41.734 103.805 45.607 99.928 45.607 95.162 45.607 90.401 41.734 86.53 36.974 86.53" data-fill-palette-color="accent"></path><rect x="66.76" y="27.148" transform="matrix(0.7073 0.7069 -0.7069 0.7073 64.3673 -31.4023)" fill="#38e7ff" width="6.693" height="69.766" data-fill-palette-color="accent"></rect><rect x="35.612" y="124.017" transform="matrix(0.7071 0.7071 -0.7071 0.7071 110.3227 -11.6054)" fill="#38e7ff" width="67.115" height="6.691" data-fill-palette-color="accent"></rect></g><g fill="#38e7ff" data-fill-palette-color="accent"><rect x="139.658" y="81.784" fill="#38e7ff" width="6.691" height="10.984" data-fill-palette-color="accent"></rect><rect x="152.436" y="79.931" transform="matrix(0.4996 0.8663 -0.8663 0.4996 151.1719 -95.1367)" fill="#38e7ff" width="10.99" height="6.692" data-fill-palette-color="accent"></rect><rect x="163.371" y="69.003" transform="matrix(0.8661 0.4998 -0.4998 0.8661 58.7646 -74.7136)" fill="#38e7ff" width="10.982" height="6.692" data-fill-palette-color="accent"></rect><rect x="167.373" y="54.072" fill="#38e7ff" width="10.982" height="6.691" data-fill-palette-color="accent"></rect></g></g></svg></g></svg></g><g></g></svg></g></svg></g></svg></g></svg></g><defs></defs></svg><rect width="320" height="360" fill="none" stroke="none" visibility="hidden"></rect></g></svg></g></svg>