<svg xmlns="http://www.w3.org/2000/svg" version="1.1" xmlns:xlink="http://www.w3.org/1999/xlink" xmlns:svgjs="http://svgjs.dev/svgjs" width="1500" height="1500" viewBox="0 0 1500 1500"><rect width="1500" height="1500" fill="#581381"></rect><g transform="matrix(0.6666666666666666,0,0,0.6666666666666666,249.39393939393938,602.1925049517123)"><svg viewBox="0 0 396 117" data-background-color="#581381" preserveAspectRatio="xMidYMid meet" height="443" width="1500" xmlns="http://www.w3.org/2000/svg" xmlns:xlink="http://www.w3.org/1999/xlink"><g id="tight-bounds" transform="matrix(1,0,0,1,0.2400000000000091,0.05579092770767602)"><svg viewBox="0 0 395.52 116.88841814458468" height="116.88841814458468" width="395.52"><g><svg viewBox="0 0 621.3142608536306 183.61762015031536" height="116.88841814458468" width="395.52"><g transform="matrix(1,0,0,1,225.79426085363068,25.37696486882072)"><svg viewBox="0 0 395.5199999999999 132.86369041267392" height="132.86369041267392" width="395.5199999999999"><g id="textblocktransform"><svg viewBox="0 0 395.5199999999999 132.86369041267392" height="132.86369041267392" width="395.5199999999999" id="textblock"><g><svg viewBox="0 0 395.5199999999999 86.14454434993922" height="86.14454434993922" width="395.5199999999999"><g transform="matrix(1,0,0,1,0,0)"><svg width="395.5199999999999" viewBox="0.9 -33.5 164.57999999999998 35.85" height="86.14454434993922" data-palette-color="#f5a1e8"><path d="M38.5-9.45L38.5-9.45Q38.5-7.65 37.7-6.05L37.7-6.05Q36-2.45 31.2-0.05 26.4 2.35 21.2 2.35L21.2 2.35Q13.3 2.35 10.45-3.05L10.45-3.05Q5.3 1.25 3.1 1.25L3.1 1.25Q2.7 1.25 2.4 1.1L2.4 1.1Q0.9 0.3 0.9-2.35 0.9-5 3.1-8.85 5.3-12.7 6.95-13.4L6.95-13.4Q7.7-13.65 8.1-13.65L8.1-13.65Q9.55-13.65 10.3-11.25L10.3-11.25 11.8-6.45Q13.25-8 15.75-11.4L15.75-11.4 20.2-17.4Q28.4-28.05 30.95-29.05L30.95-29.05Q31.85-29.4 32.8-29.4 33.75-29.4 34.38-29 35-28.6 35-28L35-28Q35-27.1 33.55-26.95L33.55-26.95Q32.05-26.1 27.83-21.98 23.6-17.85 22.8-16.75L22.8-16.75Q17.2-8.95 12.45-4.75L12.45-4.75Q15.5 1.3 21.6 1.3L21.6 1.3Q25.3 1.3 28.95-1.03 32.6-3.35 34.4-6.75L34.4-6.75Q35.2-8.2 35.2-10 35.2-11.8 33.77-13.43 32.35-15.05 30.2-15.8L30.2-15.8Q29.2-15.95 27-16.23 24.8-16.5 24.8-17.15L24.8-17.15Q24.8-17.4 25-17.6L25-17.6Q25.6-18.3 26.55-18.3L26.55-18.3Q27.1-18.3 27.63-18.1 28.15-17.9 28.45-17.8 28.75-17.7 29.15-17.55L29.15-17.55Q30.25-17.45 31.05-17.45L31.05-17.45Q34.35-17.45 37.05-18.5L37.05-18.5Q40.5-19.85 41.45-22.55L41.45-22.55Q42.05-24.3 42.05-25.7L42.05-25.7Q42.05-29.15 38.7-30.85L38.7-30.85Q35.8-32.35 30.75-32.35L30.75-32.35Q22.8-32.35 16.5-29.35L16.5-29.35Q13.3-27.85 10.43-24.9 7.55-21.95 7.55-19.85L7.55-19.85Q7.55-18.4 8.3-17.45L8.3-17.45Q8.6-17.05 9.35-16.45L9.35-16.45Q9.6-16.3 9.05-16.3L9.05-16.3Q5.95-17 5.95-20.45 5.95-23.9 9.45-26.95L9.45-26.95Q12.05-29.2 15.3-30.6L15.3-30.6Q22.05-33.5 30.65-33.5L30.65-33.5Q36.8-33.5 40.45-31.7L40.45-31.7Q44.7-29.7 44.7-25.65L44.7-25.65Q44.7-24.05 44.05-22.4L44.05-22.4Q43-19.4 38.6-17.85L38.6-17.85Q35.3-16.7 31.5-16.65L31.5-16.65Q34.45-16.5 36.48-14.48 38.5-12.45 38.5-9.45ZM6.55-11.3L6.55-11.3Q6.5-11.3 6.3-11.2L6.3-11.2Q2.6-5.85 2.6-2.6L2.6-2.6Q2.6-1.25 3.25-0.15L3.25-0.15Q3.4 0.1 3.75 0.1L3.75 0.1Q5.35 0.1 9.9-4.45L9.9-4.45 9.75-4.65Q7.75-11.3 6.55-11.3ZM54.95 0.3L54.95 0.3Q54.7 0.35 53.87 0.35 53.05 0.35 52.22-0.3 51.4-0.95 51.4-1.98 51.4-3 51.77-4.25 52.15-5.5 52.3-6.15L52.3-6.15Q46.55 0.55 43.3 0.55L43.3 0.55Q41.25 0.55 41.05-2L41.05-2Q41.05-2.2 41.05-2.35L41.05-2.35Q41.05-4.5 43.65-8.15L43.65-8.15Q42.2-6.85 40.7-5.15L40.7-5.15Q40.5-4.95 40.2-4.95L40.2-4.95Q40-4.95 40-5.2 40-5.45 40.45-6.05L40.45-6.05 47.35-14.15Q48.65-15.65 50-15.65 51.35-15.65 51.35-14.75L51.35-14.75Q51.35-14.4 51.05-14.1L51.05-14.1Q49.05-12.25 46.02-7.95 43-3.65 43-1.6L43-1.6Q43-0.7 43.6-0.7L43.6-0.7Q45.7-0.7 49.7-4.85L49.7-4.85Q51.1-6.25 54.9-11.03 58.7-15.8 59.9-15.8L59.9-15.8Q61.7-15.8 61.7-14.4L61.7-14.4Q61.7-13.9 59.6-11.5L59.6-11.5Q56.75-8.05 55.25-5.88 53.75-3.7 53.75-2.35 53.75-1 54.5-1L54.5-1Q54.85-1 55.3-1.2L55.3-1.2Q58.75-2.7 63.55-8.2L63.55-8.2Q63.85-8.55 64.15-8.55 64.45-8.55 64.45-8.22 64.45-7.9 64.1-7.5L64.1-7.5Q61.95-5 59.05-2.48 56.15 0.05 54.95 0.3ZM72.4 0.25L72.4 0.25Q68.65 0.25 68.65-3.9L68.65-3.9Q68.65-6 69.75-8.5 70.85-11 72.15-12.7L72.15-12.7Q71.9-12.65 71.5-12.65L71.5-12.65Q70.3-12.65 69.5-14.35L69.5-14.35 65.8-9.55Q62.7-5.7 62.2-5.7L62.2-5.7Q61.95-5.7 61.95-5.9L61.95-5.9Q61.95-6.4 62.8-7.35L62.8-7.35Q67.15-12.4 68.95-15.9L68.95-15.9Q70.1-20.25 71.85-20.25L71.85-20.25Q73-20.25 73-19.25 73-18.25 71.75-16.7L71.75-16.7 70.55-15.1Q70.55-14.05 72.1-14.05L72.1-14.05Q73-14.05 74.1-14.7L74.1-14.7 75.4-15.5Q75.5-15.55 75.9-15.55 76.3-15.55 76.75-15.05 77.2-14.55 77.05-14.15L77.05-14.15 73.6-9.8Q70.4-5.7 70.4-3.33 70.4-0.95 72.6-0.95L72.6-0.95Q74.9-0.95 78.25-3.4L78.25-3.4Q80.25-4.85 81.9-6.65L81.9-6.65Q83.45-8.45 83.6-8.45L83.6-8.45Q83.95-8.45 83.95-8.08 83.95-7.7 83.5-7.2L83.5-7.2 81.9-5.4Q80.55-4 78.9-2.7L78.9-2.7Q74.95 0.25 72.4 0.25ZM95.89 0.3L95.89 0.3Q95.64 0.35 94.82 0.35 93.99 0.35 93.17-0.3 92.34-0.95 92.34-1.98 92.34-3 92.72-4.25 93.09-5.5 93.24-6.15L93.24-6.15Q87.49 0.55 84.24 0.55L84.24 0.55Q82.19 0.55 81.99-2L81.99-2Q81.99-2.2 81.99-2.35L81.99-2.35Q81.99-4.5 84.59-8.15L84.59-8.15Q83.14-6.85 81.64-5.15L81.64-5.15Q81.44-4.95 81.14-4.95L81.14-4.95Q80.94-4.95 80.94-5.2 80.94-5.45 81.39-6.05L81.39-6.05 88.29-14.15Q89.59-15.65 90.94-15.65 92.29-15.65 92.29-14.75L92.29-14.75Q92.29-14.4 91.99-14.1L91.99-14.1Q89.99-12.25 86.97-7.95 83.94-3.65 83.94-1.6L83.94-1.6Q83.94-0.7 84.54-0.7L84.54-0.7Q86.64-0.7 90.64-4.85L90.64-4.85Q92.04-6.25 95.84-11.03 99.64-15.8 100.84-15.8L100.84-15.8Q102.64-15.8 102.64-14.4L102.64-14.4Q102.64-13.9 100.54-11.5L100.54-11.5Q97.69-8.05 96.19-5.88 94.69-3.7 94.69-2.35 94.69-1 95.44-1L95.44-1Q95.79-1 96.24-1.2L96.24-1.2Q99.69-2.7 104.49-8.2L104.49-8.2Q104.79-8.55 105.09-8.55 105.39-8.55 105.39-8.22 105.39-7.9 105.04-7.5L105.04-7.5Q102.89-5 99.99-2.48 97.09 0.05 95.89 0.3ZM113.94-1.8L112.34-0.75Q110.89 0.1 108.77 0.1 106.64 0.1 105.52-1.3 104.39-2.7 103.59-5.75L103.59-5.75Q102.69-4.85 102.34-4.85L102.34-4.85Q102.09-4.85 102.09-5.2 102.09-5.55 102.34-5.8L102.34-5.8Q103.99-7.85 107.94-11.7L107.94-11.7 114.24-17.6Q116.94-20.15 117.44-20.15L117.44-20.15Q119.04-20.15 119.04-18.95L119.04-18.95Q119.04-18.35 118.57-17.78 118.09-17.2 117.87-16.88 117.64-16.55 117.39-16.25L117.39-16.25Q116.49-14.7 115.57-9.85 114.64-5 114.14-3.1L114.14-3.1Q118.29-3.15 122.69-8.5L122.69-8.5Q123.19-9 123.44-9 123.69-9 123.69-8.68 123.69-8.35 123.24-7.8L123.24-7.8Q120.34-4.4 117.84-3.05L117.84-3.05Q116.34-2.3 113.94-1.8L113.94-1.8ZM105.59-6.3L105.59-6.3Q105.59-4.6 106.72-3.53 107.84-2.45 109.24-2.45 110.64-2.45 111.39-3L111.39-3Q112.39-3.55 113.37-7.6 114.34-11.65 114.54-14.75L114.54-14.75 114.74-16.45Q111.99-14.4 108.87-11.15 105.74-7.9 105.64-6.85L105.64-6.85Q105.59-6.55 105.59-6.3ZM132.94-0.2L132.94-0.2Q129.99-0.2 129.99-3.65L129.99-3.65Q129.99-5.6 131.36-7.98 132.74-10.35 134.74-13.55L134.74-13.55Q128.34-10.35 123.14-4.1L123.14-4.1Q120.24 0.25 119.74 0.25L119.74 0.25Q118.29 0.25 118.29-0.6L118.29-0.6Q118.29-1.05 118.89-2.2L118.89-2.2Q123.74-10.85 126.24-14.85L126.24-14.85Q132.19-24.4 134.64-25.2L134.64-25.2Q134.74-25.25 134.84-25.25L134.84-25.25Q135.49-25.25 135.74-24.2L135.74-24.2Q135.59-23.15 130.54-16.6L130.54-16.6Q125.29-9.95 124.59-7.9L124.59-7.9Q126.44-9.25 131.04-12.45L131.04-12.45Q135.99-15.9 137.59-15.9 139.19-15.9 139.19-14.65L139.19-14.65Q139.19-14.45 139.16-14.38 139.14-14.3 135.69-9.65 132.24-5 132.24-2.8L132.24-2.8Q132.24-1.65 133.09-1.65L133.09-1.65Q135.79-1.75 141.19-8.15L141.19-8.15Q141.64-8.6 141.86-8.6 142.09-8.6 142.09-8.3L142.09-8.3Q142.09-7.3 137.14-2.9L137.14-2.9Q134.04-0.2 132.94-0.2ZM141.84-2.5Q141.84-1 143.49-1 145.14-1 147.74-2.75 150.34-4.5 152.79-7.5L152.79-7.5Q153.39-8.3 153.74-8.3 154.09-8.3 154.09-8L154.09-8Q154.09-7.7 152.04-5.4L152.04-5.4Q147.04 0.1 143.69 0.1L143.69 0.1Q142.04 0.1 140.89-0.68 139.74-1.45 139.74-3.08 139.74-4.7 140.59-6.85L140.59-6.85Q142.04-10.25 145.24-15.4L145.24-15.4Q151.09-24.9 153.54-24.9L153.54-24.9Q154.04-24.9 154.56-24.53 155.09-24.15 155.14-23.7L155.14-23.7Q153.99-22.15 150.71-17.75 147.44-13.35 146.19-11.43 144.94-9.5 144.31-8.55 143.69-7.6 143.39-7.08 143.09-6.55 142.69-5.7L142.69-5.7Q141.84-4 141.84-2.5ZM162.88-20.4Q163.63-20.4 164.31-19.93 164.98-19.45 164.98-18.8 164.98-18.15 164.36-17.68 163.73-17.2 162.98-17.2 162.23-17.2 161.61-17.75 160.98-18.3 160.98-19L160.98-19Q160.98-20.4 162.88-20.4L162.88-20.4ZM153.83 0.55L153.83 0.55Q151.28 0.55 151.28-2.75L151.28-2.75Q151.28-5.45 154.23-10.23 157.18-15 158.98-15.05L158.98-15.05Q159.48-15.05 160.11-14.65 160.73-14.25 160.73-13.85L160.73-13.85Q160.48-13.5 160.13-13.08 159.78-12.65 159.38-12.15 158.98-11.65 158.28-10.73 157.58-9.8 156.93-8.95L156.93-8.95Q153.18-4.1 153.18-2.27 153.18-0.45 154.43-0.45L154.43-0.45Q155.48-0.45 157.28-1.6L157.28-1.6Q161.48-4.2 163.93-7.3L163.93-7.3Q164.83-8.45 165.16-8.45 165.48-8.45 165.48-8.05 165.48-7.65 164.33-6.45 163.18-5.25 162.51-4.55 161.83-3.85 161.58-3.63 161.33-3.4 160.66-2.78 159.98-2.15 159.63-1.9 159.28-1.65 158.63-1.15 157.98-0.65 157.48-0.43 156.98-0.2 156.33 0.1L156.33 0.1Q155.28 0.55 153.83 0.55Z" opacity="1" transform="matrix(1,0,0,1,0,0)" fill="#f5a1e8" class="wordmark-text-0" data-fill-palette-color="primary" id="text-0"></path></svg></g></svg></g><g transform="matrix(1,0,0,1,0,106.48120380189548)"><svg viewBox="0 0 232.2097919999999 26.382486610778432" height="26.382486610778432" width="232.2097919999999"><g transform="matrix(1,0,0,1,0,0)"><svg width="232.2097919999999" viewBox="2.25 -35.3 317.26 36.05" height="26.382486610778432" data-palette-color="#f5a1e8"><path d="M21.05 0L16.5 0 16.5-17.2 21.05-17.2 21.05 0ZM10.4 0.75L10.4 0.75 10.75-3Q12.55-3 13.83-3.9 15.1-4.8 15.8-6.55 16.5-8.3 16.5-10.7L16.5-10.7 18.75-10.8Q18.75-7.4 17.65-4.8 16.55-2.2 14.68-0.73 12.8 0.75 10.4 0.75ZM10.75-3L10.4 0.75Q8.15 0.75 6.3-0.3 4.45-1.35 3.35-3.18 2.25-5 2.25-7.25L2.25-7.25 6.55-7.4Q6.55-5.5 7.83-4.25 9.1-3 10.75-3L10.75-3ZM6.55-7.4L2.25-7.25Q2.25-9.6 3.43-11.38 4.6-13.15 6.6-14.2 8.6-15.25 11.15-15.25L11.15-15.25 11.4-11.75Q9.3-11.75 7.93-10.53 6.55-9.3 6.55-7.4L6.55-7.4ZM18.85-11.75L11.4-11.75 11.15-15.25 18.85-15.25 18.85-11.75ZM18.75-10.8L16.5-10.7 16.5-17.15 18.75-17.15 18.75-10.8ZM21.05-17.1L21.05-17.1 16.5-17.1Q16.5-19.3 15.18-20.7 13.85-22.1 11.75-22.1L11.75-22.1 11.75-26Q14.45-26 16.53-24.85 18.6-23.7 19.83-21.68 21.05-19.65 21.05-17.1ZM7.05-17.7L7.05-17.7 2.85-18.55Q3.15-20.8 4.38-22.45 5.6-24.1 7.53-25.05 9.45-26 11.8-26L11.8-26 11.8-22.1Q9.95-22.1 8.63-21.03 7.3-19.95 7.05-17.7ZM30.75 0L26.2 0 26.2-25.25 30.75-25.25 30.75 0ZM44.8 0L40.25 0 40.25-17.2 44.8-17.2 44.8 0ZM44.8-17.2L40.25-17.2Q40.25-19.3 38.95-20.63 37.65-21.95 35.6-21.95L35.6-21.95 36.75-26Q39.05-26 40.87-24.85 42.7-23.7 43.75-21.7 44.8-19.7 44.8-17.2L44.8-17.2ZM30.75-17.1L28.75-17.1Q28.75-19.65 29.8-21.68 30.85-23.7 32.65-24.85 34.45-26 36.75-26L36.75-26 35.6-21.95Q33.45-21.95 32.1-20.6 30.75-19.25 30.75-17.1L30.75-17.1ZM55 0L50.45 0 50.45-25.25 55-25.25 55 0ZM52.7-28.6L52.7-28.6Q51.45-28.6 50.59-29.45 49.74-30.3 49.74-31.55L49.74-31.55Q49.74-32.8 50.59-33.68 51.45-34.55 52.7-34.55L52.7-34.55Q53.95-34.55 54.82-33.68 55.7-32.8 55.7-31.55L55.7-31.55Q55.7-30.3 54.82-29.45 53.95-28.6 52.7-28.6ZM66.04 0L61.49 0 61.49-25.25 66.04-25.25 66.04 0ZM79.09 0L74.54 0 74.54-17.2 79.09-17.2 79.09 0ZM66.04-17.1L63.99-17.1Q63.99-19.65 64.97-21.68 65.94-23.7 67.64-24.85 69.34-26 71.44-26L71.44-26 70.29-21.95Q68.49-21.95 67.27-20.6 66.04-19.25 66.04-17.1L66.04-17.1ZM79.09-17.2L74.54-17.2Q74.54-19.3 73.34-20.63 72.14-21.95 70.29-21.95L70.29-21.95 71.44-26Q73.64-26 75.37-24.85 77.09-23.7 78.09-21.73 79.09-19.75 79.09-17.2L79.09-17.2ZM92.09 0L87.54 0 87.54-17.2 92.09-17.2 92.09 0ZM79.09-17.1L77.04-17.1Q77.04-19.65 78.02-21.68 78.99-23.7 80.67-24.85 82.34-26 84.44-26L84.44-26 83.29-21.95Q81.49-21.95 80.29-20.6 79.09-19.25 79.09-17.1L79.09-17.1ZM92.09-17.2L87.54-17.2Q87.54-19.3 86.37-20.63 85.19-21.95 83.29-21.95L83.29-21.95 84.44-26Q86.64-26 88.37-24.85 90.09-23.7 91.09-21.73 92.09-19.75 92.09-17.2L92.09-17.2ZM115.29 0L110.74 0 110.74-17.2 115.29-17.2 115.29 0ZM104.64 0.75L104.64 0.75 104.99-3Q106.79-3 108.07-3.9 109.34-4.8 110.04-6.55 110.74-8.3 110.74-10.7L110.74-10.7 112.99-10.8Q112.99-7.4 111.89-4.8 110.79-2.2 108.92-0.73 107.04 0.75 104.64 0.75ZM104.99-3L104.64 0.75Q102.39 0.75 100.54-0.3 98.69-1.35 97.59-3.18 96.49-5 96.49-7.25L96.49-7.25 100.79-7.4Q100.79-5.5 102.07-4.25 103.34-3 104.99-3L104.99-3ZM100.79-7.4L96.49-7.25Q96.49-9.6 97.67-11.38 98.84-13.15 100.84-14.2 102.84-15.25 105.39-15.25L105.39-15.25 105.64-11.75Q103.54-11.75 102.17-10.53 100.79-9.3 100.79-7.4L100.79-7.4ZM113.09-11.75L105.64-11.75 105.39-15.25 113.09-15.25 113.09-11.75ZM112.99-10.8L110.74-10.7 110.74-17.15 112.99-17.15 112.99-10.8ZM115.29-17.1L115.29-17.1 110.74-17.1Q110.74-19.3 109.42-20.7 108.09-22.1 105.99-22.1L105.99-22.1 105.99-26Q108.69-26 110.77-24.85 112.84-23.7 114.07-21.68 115.29-19.65 115.29-17.1ZM101.29-17.7L101.29-17.7 97.09-18.55Q97.39-20.8 98.62-22.45 99.84-24.1 101.77-25.05 103.69-26 106.04-26L106.04-26 106.04-22.1Q104.19-22.1 102.87-21.03 101.54-19.95 101.29-17.7ZM126.64-7.65L122.09-7.65 122.09-35.3 126.64-35.25 126.64-7.65ZM132.94-21.5L119.19-21.5 119.19-25.25 132.94-25.25 132.94-21.5ZM122.09-7.7L122.09-7.7 126.64-7.7Q126.64-6.25 127.04-5.25 127.44-4.25 128.19-3.73 128.94-3.2 129.99-3.2L129.99-3.2 129.59 0.75Q126.09 0.75 124.09-1.48 122.09-3.7 122.09-7.7ZM132.34-4.05L132.34-4.05 134.14-0.8Q133.14-0.05 131.96 0.35 130.79 0.75 129.59 0.75L129.59 0.75 129.99-3.2Q130.64-3.2 131.21-3.43 131.79-3.65 132.34-4.05ZM142.94 0L138.39 0 138.39-25.25 142.94-25.25 142.94 0ZM140.64-28.6L140.64-28.6Q139.39-28.6 138.54-29.45 137.69-30.3 137.69-31.55L137.69-31.55Q137.69-32.8 138.54-33.68 139.39-34.55 140.64-34.55L140.64-34.55Q141.89-34.55 142.76-33.68 143.64-32.8 143.64-31.55L143.64-31.55Q143.64-30.3 142.76-29.45 141.89-28.6 140.64-28.6ZM166.68-8.95L162.13-8.95 162.13-16.3 166.68-16.3 166.68-8.95ZM152.63-8.95L148.08-8.95 148.08-16.3 152.63-16.3 152.63-8.95ZM157.53-22.05L157.23-22.05 157.23-26 157.53-26 157.53-22.05ZM157.53 0.75L157.23 0.75 157.23-3.2 157.53-3.2 157.53 0.75ZM152.63-16.25L148.08-16.25Q148.08-19.05 149.31-21.25 150.53-23.45 152.61-24.73 154.68-26 157.33-26L157.33-26 157.33-22.05Q155.13-22.05 153.88-20.55 152.63-19.05 152.63-16.25L152.63-16.25ZM166.68-16.25L166.68-16.25 162.13-16.25Q162.13-19.05 160.91-20.55 159.68-22.05 157.43-22.05L157.43-22.05 157.43-26Q160.08-26 162.16-24.73 164.23-23.45 165.46-21.25 166.68-19.05 166.68-16.25ZM148.08-9L148.08-9 152.63-9Q152.63-6.25 153.88-4.73 155.13-3.2 157.33-3.2L157.33-3.2 157.33 0.75Q154.68 0.75 152.61-0.53 150.53-1.8 149.31-4 148.08-6.2 148.08-9ZM162.13-9L166.68-9Q166.68-6.2 165.46-4 164.23-1.8 162.16-0.53 160.08 0.75 157.43 0.75L157.43 0.75 157.43-3.2Q159.68-3.2 160.91-4.73 162.13-6.25 162.13-9L162.13-9ZM175.88 0L171.33 0 171.33-25.25 175.88-25.25 175.88 0ZM189.93 0L185.38 0 185.38-17.2 189.93-17.2 189.93 0ZM189.93-17.2L185.38-17.2Q185.38-19.3 184.08-20.63 182.78-21.95 180.73-21.95L180.73-21.95 181.88-26Q184.18-26 186.01-24.85 187.83-23.7 188.88-21.7 189.93-19.7 189.93-17.2L189.93-17.2ZM175.88-17.1L173.88-17.1Q173.88-19.65 174.93-21.68 175.98-23.7 177.78-24.85 179.58-26 181.88-26L181.88-26 180.73-21.95Q178.58-21.95 177.23-20.6 175.88-19.25 175.88-17.1L175.88-17.1ZM216.53-6.5L216.53-6.5Q216.53-7.75 215.63-8.58 214.73-9.4 213.3-10.08 211.88-10.75 210.3-11.45 208.73-12.15 207.3-13.08 205.88-14 204.98-15.43 204.08-16.85 204.08-18.9L204.08-18.9Q204.08-18.9 204.5-18.9 204.93-18.9 205.6-18.9 206.28-18.9 206.93-18.9 207.58-18.9 208.03-18.9 208.48-18.9 208.48-18.9L208.48-18.9Q208.48-17.65 209.38-16.82 210.28-16 211.7-15.35 213.13-14.7 214.73-13.98 216.33-13.25 217.73-12.3 219.13-11.35 220.05-9.98 220.98-8.6 220.98-6.5L220.98-6.5Q220.98-6.5 220.53-6.5 220.08-6.5 219.4-6.5 218.73-6.5 218.08-6.5 217.43-6.5 216.98-6.5 216.53-6.5 216.53-6.5ZM212.28 0.75L212.28 0.75 212.28-3.2Q214.13-3.2 215.33-4.13 216.53-5.05 216.53-6.5L216.53-6.5 220.98-6.5Q220.98-4.4 219.85-2.75 218.73-1.1 216.78-0.18 214.83 0.75 212.28 0.75ZM208.48-18.9L204.08-18.9Q204.08-20.95 205.1-22.58 206.13-24.2 207.98-25.13 209.83-26.05 212.08-26.05L212.08-26.05 212.08-22.1Q210.53-22.1 209.5-21.2 208.48-20.3 208.48-18.9L208.48-18.9ZM203.33-6.7L207.53-7.55Q207.78-5.35 209.13-4.28 210.48-3.2 212.28-3.2L212.28-3.2 212.28 0.75Q209.98 0.75 208.03-0.2 206.08-1.15 204.85-2.85 203.63-4.55 203.33-6.7L203.33-6.7ZM221.03-18.6L216.78-17.75Q216.53-20 215.2-21.05 213.88-22.1 212.08-22.1L212.08-22.1 212.08-26.05Q214.43-26.05 216.33-25.1 218.23-24.15 219.48-22.48 220.73-20.8 221.03-18.6L221.03-18.6ZM231.87-7.65L227.32-7.65 227.32-35.3 231.87-35.25 231.87-7.65ZM238.17-21.5L224.42-21.5 224.42-25.25 238.17-25.25 238.17-21.5ZM227.32-7.7L227.32-7.7 231.87-7.7Q231.87-6.25 232.27-5.25 232.67-4.25 233.42-3.73 234.17-3.2 235.22-3.2L235.22-3.2 234.82 0.75Q231.32 0.75 229.32-1.48 227.32-3.7 227.32-7.7ZM237.57-4.05L237.57-4.05 239.37-0.8Q238.37-0.05 237.2 0.35 236.02 0.75 234.82 0.75L234.82 0.75 235.22-3.2Q235.87-3.2 236.45-3.43 237.02-3.65 237.57-4.05ZM256.42-25.25L260.97-25.25 260.97 0 256.42 0 256.42-25.25ZM242.37-25.25L246.92-25.25 246.92-8.05 242.37-8.05 242.37-25.25ZM242.37-8.05L246.92-8.05Q246.92-5.95 248.25-4.63 249.57-3.3 251.62-3.3L251.62-3.3 250.47 0.75Q248.12 0.75 246.3-0.4 244.47-1.55 243.42-3.55 242.37-5.55 242.37-8.05L242.37-8.05ZM256.42-8.2L258.42-8.2Q258.42-5.65 257.4-3.63 256.37-1.6 254.55-0.43 252.72 0.75 250.47 0.75L250.47 0.75 251.62-3.3Q253.72-3.3 255.07-4.65 256.42-6 256.42-8.2L256.42-8.2ZM284.72-35.25L284.72-25.2 280.17-25.2 280.17-35.25 284.72-35.25ZM284.72 0L280.17 0 280.17-25.25 284.72-25.25 284.72 0ZM270.67-8.05L266.12-8.05 266.12-17.2 270.67-17.2 270.67-8.05ZM270.67-17.2L270.67-17.2 266.12-17.2Q266.12-19.7 267.17-21.7 268.22-23.7 270.04-24.85 271.87-26 274.22-26L274.22-26 275.37-21.95Q273.32-21.95 271.99-20.63 270.67-19.3 270.67-17.2ZM282.17-17.1L282.17-17.1 280.17-17.1Q280.17-19.25 278.82-20.6 277.47-21.95 275.37-21.95L275.37-21.95 274.22-26Q276.47-26 278.29-24.85 280.12-23.7 281.14-21.68 282.17-19.65 282.17-17.1ZM266.12-8.05L270.67-8.05Q270.67-5.95 271.99-4.63 273.32-3.3 275.37-3.3L275.37-3.3 274.22 0.75Q271.87 0.75 270.04-0.4 268.22-1.55 267.17-3.55 266.12-5.55 266.12-8.05L266.12-8.05ZM280.17-8.2L282.17-8.2Q282.17-5.65 281.14-3.63 280.12-1.6 278.29-0.43 276.47 0.75 274.22 0.75L274.22 0.75 275.37-3.3Q277.47-3.3 278.82-4.65 280.17-6 280.17-8.2L280.17-8.2ZM295.77 0L291.22 0 291.22-25.25 295.77-25.25 295.77 0ZM293.47-28.6L293.47-28.6Q292.22-28.6 291.37-29.45 290.52-30.3 290.52-31.55L290.52-31.55Q290.52-32.8 291.37-33.68 292.22-34.55 293.47-34.55L293.47-34.55Q294.72-34.55 295.59-33.68 296.47-32.8 296.47-31.55L296.47-31.55Q296.47-30.3 295.59-29.45 294.72-28.6 293.47-28.6ZM319.51-8.95L314.96-8.95 314.96-16.3 319.51-16.3 319.51-8.95ZM305.46-8.95L300.91-8.95 300.91-16.3 305.46-16.3 305.46-8.95ZM310.36-22.05L310.06-22.05 310.06-26 310.36-26 310.36-22.05ZM310.36 0.75L310.06 0.75 310.06-3.2 310.36-3.2 310.36 0.75ZM305.46-16.25L300.91-16.25Q300.91-19.05 302.14-21.25 303.36-23.45 305.44-24.73 307.51-26 310.16-26L310.16-26 310.16-22.05Q307.96-22.05 306.71-20.55 305.46-19.05 305.46-16.25L305.46-16.25ZM319.51-16.25L319.51-16.25 314.96-16.25Q314.96-19.05 313.74-20.55 312.51-22.05 310.26-22.05L310.26-22.05 310.26-26Q312.91-26 314.99-24.73 317.06-23.45 318.29-21.25 319.51-19.05 319.51-16.25ZM300.91-9L300.91-9 305.46-9Q305.46-6.25 306.71-4.73 307.96-3.2 310.16-3.2L310.16-3.2 310.16 0.75Q307.51 0.75 305.44-0.53 303.36-1.8 302.14-4 300.91-6.2 300.91-9ZM314.96-9L319.51-9Q319.51-6.2 318.29-4 317.06-1.8 314.99-0.53 312.91 0.75 310.26 0.75L310.26 0.75 310.26-3.2Q312.51-3.2 313.74-4.73 314.96-6.25 314.96-9L314.96-9Z" opacity="1" transform="matrix(1,0,0,1,0,0)" fill="#f5a1e8" class="slogan-text-1" data-fill-palette-color="secondary" id="text-1"></path></svg></g></svg></g></svg></g></svg></g><g><svg viewBox="0 0 205.45760140167442 183.61762015031536" height="183.61762015031536" width="205.45760140167442"><g><svg xmlns="http://www.w3.org/2000/svg" xmlns:xlink="http://www.w3.org/1999/xlink" version="1.1" x="0" y="0" viewBox="0.5 7.3 127 113.50000000000001" style="enable-background:new 0 0 128 128;" xml:space="preserve" height="183.61762015031536" width="205.45760140167442" class="icon-icon-0" data-fill-palette-color="accent" id="icon-0"><g fill="#fff2ff" data-fill-palette-color="accent"><path d="M6.7 56.1L14.8 68H12.1C10.7 68 9.6 69.1 9.6 70.5V72.3H7C6.6 72.3 6.3 72.6 6.3 73S6.6 73.7 7 73.7H25.5C25.9 73.7 26.2 73.4 26.2 73S25.9 72.3 25.5 72.3H22.8V70.5C22.8 69.1 21.7 68 20.3 68H16.6L8.3 55.9C9.3 55.4 9.9 54.5 9.9 53.3 9.9 52.2 9.2 51.2 8.3 50.7L16.4 38.8 18.6 40.4 23.1 51.8C23.2 52.1 23.4 52.2 23.7 52.3H23.8C24 52.3 24.3 52.2 24.4 52L27.1 48.2C27.7 48.5 28.3 48.6 29 48.6 30.8 48.6 32.7 47.6 34 45.8 34.9 44.5 35.4 43 35.3 41.6 35.2 40.4 34.8 39.3 34 38.6L36.7 34.8C36.9 34.6 36.9 34.3 36.8 34.1S36.4 33.7 36.2 33.7L24 33.1 19.4 29.8C18.4 29.1 17.2 28.8 16 29S13.8 29.9 13 30.8C12.3 31.8 12 33 12.2 34.2S13.1 36.4 14 37.1L15.2 37.9 6.7 50.5C5.3 50.7 4.3 51.9 4.3 53.3 4.3 54.8 5.3 55.9 6.7 56.1M21.3 70.5V72.3H11.2V70.5C11.2 70 11.6 69.5 12.2 69.5H20.3C20.8 69.5 21.3 69.9 21.3 70.5M33.8 41.7C33.9 42.8 33.5 44 32.8 45 31.5 46.8 29.5 47.6 28 47L33.1 39.8C33.6 40.3 33.8 41 33.8 41.7M13.7 34C13.6 33.2 13.8 32.4 14.2 31.7 14.7 31 15.4 30.6 16.2 30.4H16.7C17.3 30.4 17.9 30.6 18.5 31L23.3 34.4C23.4 34.5 23.6 34.5 23.7 34.5L34.8 35 24 50.1 20 39.7C19.9 39.6 19.9 39.5 19.7 39.4L15 36C14.3 35.5 13.9 34.8 13.7 34M7.1 52C7.9 52 8.5 52.6 8.5 53.4S7.9 54.8 7.1 54.8 5.7 54.2 5.7 53.4 6.4 52 7.1 52" fill="#fff2ff" data-fill-palette-color="accent"></path><path d="M111.9 66V48.2C111.9 47.8 111.6 47.5 111.2 47.5H80.7C80.3 47.5 80 47.8 80 48.2V66C80 66.4 80.3 66.7 80.7 66.7H111.2C111.6 66.7 111.9 66.4 111.9 66M110.4 65.3H81.4V48.9H110.4z" fill="#fff2ff" data-fill-palette-color="accent"></path><path d="M2.5 31.9C2.9 31.9 3.2 31.6 3.2 31.2V17.6C3.2 17.2 2.9 16.9 2.5 16.9S1.8 17.2 1.8 17.6V31.2C1.7 31.6 2.1 31.9 2.5 31.9" fill="#fff2ff" data-fill-palette-color="accent"></path><path d="M2.5 40.8C2.9 40.8 3.2 40.5 3.2 40.1V35.7C3.2 35.3 2.9 35 2.5 35S1.8 35.3 1.8 35.7V40.1C1.7 40.5 2.1 40.8 2.5 40.8" fill="#fff2ff" data-fill-palette-color="accent"></path><path d="M125.6 90.2C125.2 90.2 124.9 90.5 124.9 90.9V104.5C124.9 104.9 125.2 105.2 125.6 105.2S126.3 104.9 126.3 104.5V90.9C126.3 90.5 126 90.2 125.6 90.2" fill="#fff2ff" data-fill-palette-color="accent"></path><path d="M125.6 108.2C125.2 108.2 124.9 108.5 124.9 108.9V113.3C124.9 113.7 125.2 114 125.6 114S126.3 113.7 126.3 113.3V109C126.3 108.6 126 108.2 125.6 108.2" fill="#fff2ff" data-fill-palette-color="accent"></path><path d="M25.3 112.5C25 112.2 24.5 112.2 24.3 112.5 24 112.8 24 113.3 24.3 113.5L26 115.2C26.1 115.3 26.3 115.4 26.5 115.4S26.9 115.3 27 115.2C27.3 114.9 27.3 114.4 27 114.2z" fill="#fff2ff" data-fill-palette-color="accent"></path><path d="M30.6 117.9C30.3 117.6 29.8 117.6 29.6 117.9S29.3 118.7 29.6 118.9L31.3 120.6C31.4 120.7 31.6 120.8 31.8 120.8S32.2 120.7 32.3 120.6C32.6 120.3 32.6 119.8 32.3 119.6z" fill="#fff2ff" data-fill-palette-color="accent"></path><path d="M25.9 117.9L24.2 119.6C23.9 119.9 23.9 120.4 24.2 120.6 24.3 120.7 24.5 120.8 24.7 120.8S25.1 120.7 25.2 120.6L26.9 118.9C27.2 118.6 27.2 118.1 26.9 117.9S26.2 117.6 25.9 117.9" fill="#fff2ff" data-fill-palette-color="accent"></path><path d="M31.2 112.5L29.5 114.2C29.2 114.5 29.2 115 29.5 115.2 29.6 115.3 29.8 115.4 30 115.4S30.4 115.3 30.5 115.2L32.2 113.5C32.5 113.2 32.5 112.7 32.2 112.5 32 112.3 31.5 112.3 31.2 112.5" fill="#fff2ff" data-fill-palette-color="accent"></path><path d="M103.8 15.9C103.9 16 104.1 16.1 104.3 16.1S104.7 16 104.8 15.9C105.1 15.6 105.1 15.1 104.8 14.9L103.1 13.2C102.8 12.9 102.3 12.9 102.1 13.2 101.8 13.5 101.8 14 102.1 14.2z" fill="#fff2ff" data-fill-palette-color="accent"></path><path d="M109.2 21.3C109.3 21.4 109.5 21.5 109.7 21.5S110.1 21.4 110.2 21.3C110.5 21 110.5 20.5 110.2 20.3L108.5 18.6C108.2 18.3 107.7 18.3 107.5 18.6 107.2 18.9 107.2 19.4 107.5 19.6z" fill="#fff2ff" data-fill-palette-color="accent"></path><path d="M102.7 21.5C102.9 21.5 103.1 21.4 103.2 21.3L104.9 19.6C105.2 19.3 105.2 18.8 104.9 18.6S104.1 18.3 103.9 18.6L102.2 20.3C101.9 20.6 101.9 21.1 102.2 21.3 102.3 21.4 102.5 21.5 102.7 21.5" fill="#fff2ff" data-fill-palette-color="accent"></path><path d="M108 16.1C108.2 16.1 108.4 16 108.5 15.9L110.2 14.2C110.5 13.9 110.5 13.4 110.2 13.2 109.9 12.9 109.4 12.9 109.2 13.2L107.5 14.9C107.2 15.2 107.2 15.7 107.5 15.9 107.6 16.1 107.8 16.1 108 16.1" fill="#fff2ff" data-fill-palette-color="accent"></path><path d="M123.6 31.8C121.4 31.8 119.7 33.6 119.7 35.7 119.7 37.9 121.5 39.6 123.6 39.6 125.8 39.6 127.5 37.8 127.5 35.7 127.5 33.5 125.7 31.8 123.6 31.8M123.6 38.1C122.3 38.1 121.2 37 121.2 35.7S122.3 33.3 123.6 33.3 126 34.4 126 35.7C126 37.1 124.9 38.1 123.6 38.1" fill="#fff2ff" data-fill-palette-color="accent"></path><path d="M18.6 10.3H33.3C33.7 10.3 34 10 34 9.6S33.7 8.9 33.3 8.9H18.6C18.2 8.9 17.9 9.2 17.9 9.6 17.9 9.9 18.2 10.3 18.6 10.3" fill="#fff2ff" data-fill-palette-color="accent"></path><path d="M38.2 10.3H43C43.4 10.3 43.7 10 43.7 9.6S43.4 8.9 43 8.9H38.2C37.8 8.9 37.5 9.2 37.5 9.6 37.4 9.9 37.8 10.3 38.2 10.3" fill="#fff2ff" data-fill-palette-color="accent"></path><path d="M42.9 13.8H32.7C32.3 13.8 32 14.1 32 14.5S32.3 15.2 32.7 15.2H43C43.4 15.2 43.7 14.9 43.7 14.5S43.3 13.8 42.9 13.8" fill="#fff2ff" data-fill-palette-color="accent"></path><path d="M24.9 13.8C24.5 13.8 24.2 14.1 24.2 14.5S24.5 15.2 24.9 15.2H28.2C28.6 15.2 28.9 14.9 28.9 14.5S28.6 13.8 28.2 13.8z" fill="#fff2ff" data-fill-palette-color="accent"></path><path d="M84.3 113.1C84.3 112.7 84 112.4 83.6 112.4H68.8C68.4 112.4 68.1 112.7 68.1 113.1S68.4 113.8 68.8 113.8H83.5C83.9 113.8 84.3 113.5 84.3 113.1" fill="#fff2ff" data-fill-palette-color="accent"></path><path d="M93.1 112.3H88.3C87.9 112.3 87.6 112.6 87.6 113S87.9 113.7 88.3 113.7H93.1C93.5 113.7 93.8 113.4 93.8 113 93.9 112.7 93.5 112.3 93.1 112.3" fill="#fff2ff" data-fill-palette-color="accent"></path><path d="M93.1 117.4H82.9C82.5 117.4 82.2 117.7 82.2 118.1S82.5 118.8 82.9 118.8H93.2C93.6 118.8 93.9 118.5 93.9 118.1S93.5 117.4 93.1 117.4" fill="#fff2ff" data-fill-palette-color="accent"></path><path d="M78.4 117.4H75.1C74.7 117.4 74.4 117.7 74.4 118.1S74.7 118.8 75.1 118.8H78.4C78.8 118.8 79.1 118.5 79.1 118.1 79.2 117.7 78.9 117.4 78.4 117.4" fill="#fff2ff" data-fill-palette-color="accent"></path><path d="M117.9 75.1H101.7L99.9 70.9H113.5C114.9 70.9 116.1 69.8 116.1 68.3V45.8C116.1 44.4 115 43.2 113.5 43.2H78.4C77 43.2 75.8 44.3 75.8 45.8V68.3C75.8 69.7 76.9 70.9 78.4 70.9H92L90.2 75.1H1.2C0.8 75.1 0.5 75.4 0.5 75.8V81.3C0.5 81.7 0.8 82 1.2 82H8.6V114.7H6.6C6.2 114.7 5.9 115 5.9 115.4S6.2 116.1 6.6 116.1H15.5C15.9 116.1 16.2 115.8 16.2 115.4S15.9 114.7 15.5 114.7H13.3L14.8 82H104.1L105.6 114.7H103.4C103 114.7 102.7 115 102.7 115.4S103 116.1 103.4 116.1H112.3C112.7 116.1 113 115.8 113 115.4S112.7 114.7 112.3 114.7H110.3V82.1H117.7C118.1 82.1 118.4 81.8 118.4 81.4V75.9C118.6 75.4 118.3 75.1 117.9 75.1M77.3 68.3V45.8C77.3 45.2 77.8 44.7 78.4 44.7H113.5C114.1 44.7 114.6 45.2 114.6 45.8V68.3C114.6 68.9 114.1 69.4 113.5 69.4H78.4C77.8 69.4 77.3 68.9 77.3 68.3M93.5 70.9H98.3L100.1 75.1H91.8zM11.9 114.9H10V82.1H13.4zM109.1 114.9H107.2L105.7 82.2H109.1zM117.2 80.6H2V76.5H117.2z" fill="#fff2ff" data-fill-palette-color="accent"></path><path d="M65.6 24.5V27.9C65.6 28.3 65.9 28.6 66.3 28.6S67 28.3 67 27.9V24.6C68 24.3 68.7 23.4 68.7 22.3 68.7 21.6 68.4 21.1 68 20.6L71.4 14.2C71.6 13.8 71.5 13.4 71.1 13.2S70.3 13.1 70.1 13.5L66.7 19.9H66.3C65 19.9 63.9 21 63.9 22.3 64 23.3 64.7 24.2 65.6 24.5M66.4 21.3C66.9 21.3 67.3 21.7 67.3 22.2S66.9 23.1 66.4 23.1 65.5 22.7 65.5 22.2C65.4 21.7 65.9 21.3 66.4 21.3" fill="#fff2ff" data-fill-palette-color="accent"></path><path d="M66.4 37.3C74.7 37.3 81.4 30.6 81.4 22.3S74.7 7.3 66.4 7.3 51.4 14 51.4 22.3 58.1 37.3 66.4 37.3M66.4 8.7C73.9 8.7 80 14.8 80 22.3S73.9 35.9 66.4 35.9 52.8 29.8 52.8 22.3 58.9 8.7 66.4 8.7" fill="#fff2ff" data-fill-palette-color="accent"></path><path d="M66.4 12.7C66.8 12.7 67.1 12.4 67.1 12V10.4C67.1 10 66.8 9.7 66.4 9.7S65.7 10 65.7 10.4V12C65.7 12.3 66 12.7 66.4 12.7" fill="#fff2ff" data-fill-palette-color="accent"></path><path d="M56.1 21.5H54.5C54.1 21.5 53.8 21.8 53.8 22.2S54.1 22.9 54.5 22.9H56.1C56.5 22.9 56.8 22.6 56.8 22.2S56.5 21.5 56.1 21.5" fill="#fff2ff" data-fill-palette-color="accent"></path><path d="M66.4 31.8C66 31.8 65.7 32.1 65.7 32.5V34.1C65.7 34.5 66 34.8 66.4 34.8S67.1 34.5 67.1 34.1V32.5C67.1 32.1 66.8 31.8 66.4 31.8" fill="#fff2ff" data-fill-palette-color="accent"></path><path d="M76.7 23H78.3C78.7 23 79 22.7 79 22.3S78.7 21.6 78.3 21.6H76.7C76.3 21.6 76 21.9 76 22.3 76 22.6 76.3 23 76.7 23" fill="#fff2ff" data-fill-palette-color="accent"></path><path d="M74.6 105.6V102.9H82.8C83.2 102.9 83.5 102.6 83.5 102.2V93.2C83.5 92.8 83.2 92.5 82.8 92.5H74.6V89.8C74.6 89.4 74.3 89.1 73.9 89.1H39.3C37.3 89.1 35.6 90.8 35.6 92.8V102.9C35.6 104.9 37.2 106.6 39.3 106.6H73.8C74.2 106.3 74.6 106 74.6 105.6M82 93.9V101.4H74.5V93.9zM73.1 104.9H39.3C38.1 104.9 37.1 103.9 37.1 102.7V92.6C37.1 91.4 38.1 90.4 39.3 90.4H73.1z" fill="#fff2ff" data-fill-palette-color="accent"></path><path d="M47.7 92.4C47.3 92.4 47 92.7 47 93.1V102.1C47 102.5 47.3 102.8 47.7 102.8S48.4 102.5 48.4 102.1V93.1C48.4 92.7 48.1 92.4 47.7 92.4" fill="#fff2ff" data-fill-palette-color="accent"></path><path d="M55.1 92.4C54.7 92.4 54.4 92.7 54.4 93.1V102.1C54.4 102.5 54.7 102.8 55.1 102.8S55.8 102.5 55.8 102.1V93.1C55.8 92.7 55.5 92.4 55.1 92.4" fill="#fff2ff" data-fill-palette-color="accent"></path><path d="M62.5 92.4C62.1 92.4 61.8 92.7 61.8 93.1V102.1C61.8 102.5 62.1 102.8 62.5 102.8S63.2 102.5 63.2 102.1V93.1C63.2 92.7 62.9 92.4 62.5 92.4" fill="#fff2ff" data-fill-palette-color="accent"></path><path d="M47.1 61.9H52.8V71C52.8 71.4 53.1 71.7 53.5 71.7S54.2 71.4 54.2 71V61.9H60C60.2 61.9 60.5 61.8 60.6 61.6S60.8 61.2 60.7 60.9L59.5 57.5C59.4 57.2 59.1 57 58.8 57H57.8C57.4 57 57.1 56.7 57.1 56.3L56.6 48.1C56.6 47.9 56.7 47.7 56.8 47.5S57.1 47.3 57.4 47.3H58C58.3 47.3 58.6 47.1 58.7 46.8L59.7 44C59.8 43.8 59.7 43.5 59.6 43.3 59.4 43.1 59.2 43 59 43H48.2C48 43 47.7 43.1 47.6 43.3S47.4 43.7 47.5 44L48.5 46.8C48.6 47.1 48.9 47.3 49.2 47.3H49.8C50 47.3 50.2 47.4 50.4 47.5S50.6 47.9 50.6 48.1L50 56.3C50 56.7 49.6 57 49.3 57H48.3C48 57 47.7 57.2 47.6 57.5L46.4 60.9C46.3 61.1 46.4 61.4 46.5 61.6S46.9 61.9 47.1 61.9M48.8 58.5H49.3C50.5 58.5 51.4 57.6 51.5 56.4L52 48.2C52 47.6 51.8 47 51.4 46.5 51 46.1 50.4 45.8 49.8 45.8H49.7L49.2 44.5H57.9L57.4 45.8H57.3C56.7 45.8 56.1 46.1 55.7 46.5S55.1 47.6 55.1 48.2L55.6 56.4C55.7 57.6 56.6 58.5 57.8 58.5H58.3L59 60.4H48.2z" fill="#fff2ff" data-fill-palette-color="accent"></path></g></svg></g></svg></g></svg></g><defs></defs></svg><rect width="395.52" height="116.88841814458468" fill="none" stroke="none" visibility="hidden"></rect></g></svg></g></svg>